<svg width="90" height="90" viewBox="0 0 90 90" fill="none" xmlns="http://www.w3.org/2000/svg">
<path d="M48.4705 55.4152C48.4705 56.9644 47.3947 57.739 45.243 57.739C42.8331 57.739 41.6282 56.9644 41.6282 55.4152C41.6282 48.2717 39.2614 42.4622 34.5277 37.9872C30.3104 34.2003 26.2223 32.3068 22.2637 32.3068C16.4112 32.3068 12.7533 34.6306 11.2907 39.2782L10.7743 42.7639V43.0221C10.7743 46.4647 13.3133 51.2415 18.3912 57.3521C19.7683 58.9013 20.9302 60.1062 21.8769 60.9669C23.254 62.0857 25.5347 62.6452 28.7192 62.6452C32.0758 62.6452 37.498 61.9997 44.9862 60.7087C52.5601 61.9997 58.0252 62.6452 61.3822 62.6452C64.6527 62.6452 66.9335 62.0858 68.2245 60.9669C71.8393 57.7824 74.8516 53.9094 77.2615 49.3479C78.6386 46.7659 79.3271 44.6573 79.3271 43.022C79.3271 37.5998 76.8742 34.2002 71.9684 32.823C70.6774 32.4788 69.3003 32.3066 67.8372 32.3066C63.8782 32.3066 59.833 34.2431 55.7022 38.1161C50.8825 42.4194 48.4726 48.1861 48.4726 55.4151L48.4705 55.4152ZM76.4876 43.0211C76.4876 46.4637 74.1208 50.5089 69.3871 55.1561L66.0305 57.9963L64.7395 58.7709C63.1042 59.0291 61.3829 59.1582 59.5755 59.1582C54.2394 59.1582 51.5713 58.0824 51.5713 55.9307C51.7434 49.3036 53.723 44.1397 57.5099 40.4387C60.7804 37.1681 64.137 35.5329 67.5799 35.5329C71.9693 35.5329 74.7665 37.1251 75.9714 40.3096L76.4878 43.0207L76.4876 43.0211ZM64.2238 75.8117C64.2238 73.574 57.8979 72.4551 45.2458 72.4551C41.8031 72.4551 38.7478 72.5842 36.0797 72.8424L32.9813 73.1006C28.3337 73.7031 26.0099 74.5637 26.0099 75.6826C26.0099 76.9736 27.1718 77.6191 29.4956 77.6191L45.1166 76.3281L60.6086 77.6191C63.0184 77.6191 64.2234 77.0166 64.2234 75.8117H64.2238ZM71.453 78.9101C71.2809 84.7626 62.5021 87.6889 45.117 87.6889C27.904 87.6889 19.168 84.7626 18.91 78.9101C18.8239 73.4018 18.0063 68.4961 16.4571 64.1931C15.5104 61.8693 13.703 58.9 11.0349 55.2852C7.6783 50.7237 6 46.6785 6 43.1502C6 37.6419 8.3668 33.3816 13.1005 30.3692C15.7686 28.6479 18.7379 27.7872 22.0084 27.7872C26.4839 27.7872 30.7442 29.4225 34.7894 32.693C34.7894 28.7339 35.1767 26.0228 35.9513 24.5597C36.5538 22.9244 38.5333 20.9449 41.8899 18.6211V15.6518L36.5968 12.4243V7.7767H41.3735L42.9227 3H47.3121L48.9904 7.7767H53.638V12.4243L48.474 15.6518V18.6211C51.7445 21.031 53.7671 23.0966 54.5417 24.8179L55.4454 28.5618C55.5315 29.5946 55.6175 30.9717 55.7036 32.693C59.7487 29.4225 63.923 27.7872 68.2266 27.7872C73.993 27.7872 78.4686 29.9819 81.6526 34.3713C83.46 36.9533 84.3637 39.8796 84.3637 43.1501C84.3637 46.6788 82.6854 50.767 79.3288 55.4141L76.3595 59.5453C73.1751 64.365 71.5398 70.8203 71.4537 78.9103L71.453 78.9101ZM13.7457 43.0203C13.7457 39.4055 15.5531 37.0817 19.1679 36.0489C20.2007 35.7046 21.2765 35.5325 22.3954 35.5325C26.0102 35.5325 29.4529 37.1678 32.7234 40.4383C36.4243 44.2252 38.3608 49.3892 38.5329 55.9303C38.619 57.8238 36.6394 58.8996 32.5943 59.1578H30.6578C28.9365 59.1578 27.1721 59.0287 25.3647 58.7705C22.5245 57.3934 19.6843 54.6823 16.8441 50.6372C14.7785 47.6249 13.7457 45.0859 13.7457 43.0203" fill="black"/>
</svg>
