<svg width="90" height="90" viewBox="0 0 90 90" fill="none" xmlns="http://www.w3.org/2000/svg">
<path d="M38.5021 56.1584C34.1126 56.1584 31.9179 56.8469 31.918 58.224C31.9179 59.4289 33.8544 60.1605 37.7275 60.4187H44.828C53.4345 60.4187 57.738 59.6871 57.738 58.224C57.7379 56.8469 55.5432 56.1584 51.1539 56.1584H38.5019H38.5021ZM38.5019 48.1542C34.7149 48.1542 32.6062 48.5845 32.176 49.4452C32.0038 49.6173 31.9177 49.8755 31.9178 50.2198C31.9177 51.1665 32.8214 51.726 34.6289 51.8981C36.8665 52.1563 40.2662 52.2854 44.8279 52.2854C49.3896 52.2854 52.832 52.1563 55.1559 51.8981C56.8771 51.7259 57.7378 51.1665 57.7379 50.2198C57.7378 48.8427 55.5431 48.1542 51.1538 48.1542H38.5018L38.5019 48.1542ZM62.5148 53.7055L65.0968 63.6462C65.0967 66.6585 62.0413 68.4229 55.9307 68.9393C60.4061 70.6606 64.5803 71.5213 68.4537 71.5213C68.97 71.5213 71.509 71.3922 76.0706 71.134C79.8574 71.134 82.9558 73.1135 85.3658 77.0726C85.71 77.7611 86.1403 78.5357 86.6568 79.3964L82.0092 86.4969C80.632 88.2182 79.1689 89.3371 77.6198 89.8535C77.2754 88.0461 74.5213 86.9273 69.3574 86.4969L66.259 86.2387C55.673 85.378 48.529 83.0973 44.828 79.3964C41.4713 82.9251 36.3503 84.9477 29.465 85.4641C27.9158 85.6362 25.8932 85.8944 23.3973 86.2387C17.1144 86.7551 13.4566 87.6588 12.4243 88.9498C12.2522 89.208 12.123 89.5092 12.037 89.8535C9.79929 88.9068 7.69062 86.7551 5.71112 83.3985C4.93651 82.0214 4.0328 80.6874 3 79.3964C5.3238 75.0931 7.81969 72.5111 10.4878 71.6504C11.4346 71.3061 12.4673 71.134 13.5862 71.134L21.2031 71.5213C25.1621 71.5213 29.3364 70.6606 33.7261 68.9393C27.6154 68.4229 24.56 66.6585 24.56 63.6462C24.56 63.388 25.2485 61.1933 26.6256 57.0621C27.0559 55.685 27.2711 54.7383 27.2711 54.2219C22.021 47.853 19.396 42.2159 19.396 37.3099C19.396 31.6295 22.1932 26.4659 27.7875 21.8179C32.7793 17.6006 36.3941 15.3629 38.6315 15.1047C36.7379 12.7809 35.7912 10.371 35.7913 7.87509C35.7912 3.82999 37.8138 1.33409 41.859 0.387291C42.8056 0.129191 43.7954 0.00011 44.8283 0C49.1315 0.00011 51.9287 1.5922 53.2198 4.7767L53.8653 7.4878V7.8751C53.8652 10.285 52.9184 12.6948 51.0251 15.1047C52.6603 15.535 55.1131 16.8691 58.3838 19.1068C66.3018 24.615 70.2608 30.6828 70.2608 37.3098C70.2607 42.3017 67.6787 47.7668 62.5148 53.7058V53.7055ZM47.1518 41.6998V35.7612H51.6703V30.8554H47.1518V25.3041H42.5042V30.8554H37.9857V35.7612H42.5042V41.6998H47.1518ZM44.828 5.2938C43.1066 5.2938 42.0307 6.06838 41.6005 7.6176L41.4714 8.39218C41.4713 10.0275 42.332 11.0603 44.0534 11.4906C44.3115 11.5766 44.5697 11.6197 44.8281 11.6197C46.9796 11.6197 48.0554 10.5439 48.0555 8.39217C48.0554 6.32657 46.9796 5.29377 44.8281 5.29377" fill="black"/>
</svg>
