<svg width="90" height="90" viewBox="0 0 90 90" fill="none" xmlns="http://www.w3.org/2000/svg">
<path d="M23.4953 72.8423C23.4953 74.2194 24.4851 74.9079 26.4646 74.9079L35.3725 74.2624L43.1185 73.8751H45.055L60.16 74.6497L63.2584 74.9079C65.2378 74.9079 66.2276 74.2194 66.2277 72.8423C66.2276 70.3464 60.4611 68.9693 48.9287 68.7111H44.9266C35.201 68.7111 28.7026 69.4427 25.4326 70.9058C24.1416 71.4222 23.4961 72.0677 23.4961 72.8423H23.4953ZM7.35912 18.8783C5.72382 18.8783 4.69103 19.696 4.26073 21.3312C4.17466 21.5894 4.13161 21.8476 4.13161 22.1058C4.13161 23.7411 4.94927 24.7739 6.58452 25.2042C6.84271 25.2903 7.10091 25.3334 7.35912 25.3334C9.42472 25.3334 10.4575 24.2576 10.4575 22.1059C10.4575 19.9542 9.42472 18.8783 7.35912 18.8783V18.8783ZM24.2711 10.745C22.0334 10.745 20.9145 11.8208 20.9145 13.9725C20.9145 16.1242 22.0333 17.2001 24.2711 17.2001C26.3367 17.2001 27.3695 16.1242 27.3695 13.9725C27.3695 11.8208 26.3367 10.745 24.2711 10.745ZM65.4541 10.745C63.9909 10.745 63.0011 11.4766 62.4848 12.9398L62.3557 13.9725C62.3556 16.1242 63.3884 17.2001 65.4541 17.2001C67.6057 17.2001 68.6815 16.1242 68.6816 13.9725C68.6817 11.8208 67.6057 10.745 65.4541 10.745V10.745ZM82.2371 18.8783C80.1714 18.8783 79.1386 19.9542 79.1387 22.1059C79.1388 24.2576 80.1714 25.3334 82.2371 25.3334C84.3887 25.3334 85.4645 24.2576 85.4646 22.1059C85.4645 20.4706 84.6469 19.4378 83.0117 19.0075C82.7534 18.9214 82.4952 18.8783 82.2371 18.8783V18.8783ZM72.9419 80.5883C72.9418 82.9982 68.5094 84.6765 59.6449 85.6232L47.1219 86.3978H44.7981C34.2981 86.3978 26.2941 85.4941 20.7851 83.6867C18.117 82.9121 16.783 81.8793 16.783 80.5883C16.783 78.0924 17.4715 75.2522 18.8486 72.0677C19.7953 70.1742 20.2687 68.8402 20.2687 68.0656C20.2687 66.4303 18.2892 63.2458 14.3301 58.5122C12.1784 56.0163 10.9305 54.2949 10.5862 53.3482C10.5862 52.8318 10.328 51.6699 9.8116 49.8625L8.13329 43.4075C7.01449 39.1902 6.2829 34.7148 5.9386 29.9815C1.9795 28.3462 0 25.7212 0 22.1064C0 19.008 1.4201 16.8133 4.2603 15.5223C5.20703 15.092 6.23979 14.8768 7.35869 14.8768C10.1989 14.8768 12.3075 16.1678 13.6846 18.7498C14.2871 19.8686 14.5883 20.9875 14.5883 22.1064L13.9428 27.0122C13.9428 30.8852 16.6969 35.6189 22.2052 41.2132C22.6355 37.6845 22.8507 33.9836 22.8507 30.1102C22.8507 24.3438 21.8179 20.6859 19.7523 19.1372C19.5802 18.965 19.408 18.836 19.2359 18.7499C17.6867 17.8032 16.9121 16.1249 16.9121 13.715C16.9121 10.5305 18.3752 8.33581 21.3015 7.13091C22.2483 6.70058 23.238 6.4854 24.2708 6.4854C27.2831 6.4854 29.4348 7.8625 30.7258 10.6166C31.2422 11.5634 31.5003 12.5961 31.5004 13.715L30.5967 19.2663C30.5967 24.086 32.9634 31.4443 37.6972 41.3423C39.5045 33.252 40.4082 27.0553 40.4083 22.7523C40.4082 19.1375 39.7627 15.8239 38.4718 12.8116C37.9553 11.6927 37.6971 10.8321 37.6972 10.2296C37.6971 7.0451 39.1172 4.8504 41.9575 3.6455C42.9041 3.21518 43.8939 3 44.9268 3C47.939 3 50.0476 4.4201 51.2527 7.2603C51.6829 8.20703 51.8981 9.1968 51.8982 10.2296C51.8981 10.4017 51.1665 12.6825 49.7035 17.0719C49.3591 18.1907 49.187 20.0842 49.1871 22.7523C49.187 27.0556 50.0907 33.2523 51.8982 41.3423C56.5457 31.5307 58.8695 24.1723 58.8696 19.2663L58.095 13.8441V13.715C58.0949 10.5305 59.558 8.33579 62.4844 7.13089C63.431 6.70056 64.4208 6.48539 65.4537 6.48539C68.4659 6.48539 70.6176 7.86249 71.9087 10.6166C72.425 11.5633 72.6832 12.5961 72.6833 13.715C72.6832 16.1249 71.9086 17.8462 70.3595 18.879C67.9495 20.4282 66.7446 24.2151 66.7447 30.24C66.7446 34.0269 66.9597 37.6848 67.3902 41.214C72.8983 35.6197 75.6525 30.886 75.6526 27.013L75.0071 22.1072C75.007 19.0949 76.3841 16.9432 79.1383 15.6522C80.0849 15.1358 81.1177 14.8776 82.2367 14.8776C85.335 14.8776 87.5297 16.2547 88.8208 19.0088L89.5954 21.4617V22.1072C89.5953 25.5498 87.6158 28.1749 83.6568 29.9823C83.1403 35.9209 81.6772 43.1933 79.2674 51.8003C79.0951 52.4888 79.0091 53.0052 79.0092 53.3495C79.0091 53.952 78.3636 54.9417 77.0727 56.3188L75.5235 58.2553C71.3922 62.989 69.3266 66.2595 69.3267 68.0669C69.3266 68.5833 70.3594 71.2514 72.4251 76.0711C72.7692 77.7924 72.9413 79.2986 72.9415 80.5896L72.9419 80.5883ZM44.9265 6.74459C43.2911 6.74459 42.2582 7.56223 41.828 9.19749C41.7419 9.45569 41.6989 9.71388 41.699 9.97208C41.6989 11.6074 42.5165 12.6402 44.1519 13.0705C44.41 13.1566 44.6682 13.1996 44.9265 13.1996C46.992 13.1996 48.0248 12.1238 48.0249 9.97209C48.0248 8.42289 47.2932 7.39009 45.8302 6.87369C45.5719 6.78763 45.2707 6.74459 44.9265 6.74459H44.9265ZM68.1645 57.0936C68.1644 54.3395 60.4184 52.9624 44.9265 52.9624C29.3485 52.9624 21.5595 54.3825 21.5595 57.2227C21.5595 58.4276 22.6783 59.0301 24.9161 59.0301C27.4981 59.0301 30.7256 58.8149 34.5986 58.3846L42.9901 58.1264H45.0557C47.4654 58.1264 52.027 58.3415 58.7407 58.7719L65.0666 59.0301C67.1321 59.0301 68.1649 58.3846 68.165 57.0936" fill="black"/>
</svg>
