<svg width="90" height="90" viewBox="0 0 90 90" fill="none" xmlns="http://www.w3.org/2000/svg">
<path d="M17.1291 82.9106C17.043 81.8778 17 79.8552 17 76.8429C17 65.9989 20.3566 57.9509 27.07 52.7009C29.0495 51.0656 31.4593 49.5595 34.2996 48.1824C30.943 47.1496 28.6622 44.6106 27.4573 40.5655C27.113 39.2745 26.9409 37.9405 26.9409 36.5634C26.9409 30.7969 29.9102 26.7088 35.8488 24.2994C34.2995 21.7174 33.5249 19.2645 33.525 16.9407C33.5249 13.0677 35.4184 10.1845 39.2054 8.291C40.9266 7.43033 42.777 7 44.7567 7C49.0599 7 52.2444 8.6783 54.3101 12.0349C55.2567 13.498 55.7301 15.1333 55.7302 16.9407C55.7301 19.4366 54.9986 21.8895 53.5355 24.2994C56.7199 25.5904 59.0006 27.3117 60.3778 29.4634C61.7548 31.7872 62.4433 34.154 62.4434 36.5639C62.4433 41.0393 60.8941 44.439 57.7958 46.7629C57.0211 47.4514 56.1604 47.9248 55.2138 48.183C63.1318 52.2281 68.2528 57.5212 70.5768 64.062C71.7816 67.6768 72.3841 71.9371 72.3842 76.843C72.3841 79.8553 72.3411 81.8779 72.2551 82.9107H17.1292" fill="black"/>
</svg>
