<svg width="90" height="90" viewBox="0 0 90 90" fill="none" xmlns="http://www.w3.org/2000/svg">
<path d="M23.8154 37.0804C25.967 37.0804 28.2478 35.8324 30.6577 33.3365C31.9487 32.0455 32.5942 30.9266 32.5942 29.9799C32.5942 28.861 31.5614 28.3016 29.4958 28.3016C27.086 28.3016 25.0634 29.3774 23.4281 31.5291C22.5674 32.5619 22.1371 33.6377 22.1371 34.7566C22.1371 36.3058 22.6965 37.0804 23.8154 37.0804V37.0804ZM21.6207 8.80742C21.7928 8.80742 22.2231 8.76438 22.9117 8.67831C26.7847 8.67831 30.9159 9.96931 35.3057 12.5513L36.0803 13.0677C38.5762 9.0226 40.4697 7 41.7607 7C44.5148 8.5492 46.3223 10.2275 47.1829 12.0349C47.6132 12.8956 48.2587 14.703 49.1194 17.4571C49.8079 17.2849 50.4965 17.1989 51.185 17.1989C58.4146 17.1989 65.3 21.6313 71.841 30.4959C79.6731 40.7379 83.589 54.6809 83.589 72.3239C83.589 76.283 83.4168 79.8547 83.0726 83.0389H28.5926C28.7647 77.2724 30.8734 71.8069 34.9185 66.6429C35.3489 65.9544 35.9513 65.1798 36.7259 64.3191C39.9104 60.274 41.8469 57.1756 42.5354 55.0239C42.8797 53.9051 43.1379 52.7431 43.31 51.5382C37.6296 53.7759 33.3693 57.0895 30.529 61.4789C29.238 63.6305 27.8179 65.8683 26.2687 68.1921C25.8383 68.8807 25.1929 69.2249 24.3322 69.2249C22.1805 69.2249 21.1047 67.8909 21.1047 65.2228C20.244 66.3417 19.2543 66.9011 18.1354 66.9011L15.5534 66.2556C11.8525 65.3089 9.22748 63.6736 7.67828 61.3498C7.16189 60.5752 6.6025 59.5424 6 58.2514C6.60248 54.5505 9.5718 47.1914 14.9079 36.1754C18.7809 28.2573 21.1908 22.5764 22.1375 19.1344C22.2236 18.3598 22.2666 17.241 22.2666 15.7778C22.2666 14.5729 22.0514 12.2491 21.6211 8.80641L21.6207 8.80742ZM13.8751 54.1204C11.8095 54.1204 10.4324 55.0241 9.7439 56.8315C9.57177 57.2618 9.48572 57.6922 9.48572 58.1225C9.48572 58.4668 9.61478 58.8971 9.87299 59.4135C12.1107 59.4135 13.4878 58.4668 14.0042 56.5733C14.0903 56.3151 14.1333 56.0139 14.1333 55.6696C14.1333 55.4975 14.0473 54.9811 13.8751 54.1204H13.8751ZM77.2631 74.0014V69.2247C77.2631 55.1957 73.6913 43.7057 66.5481 34.7547C60.3513 27.0087 54.7141 23.1357 49.6361 23.1357L48.0869 22.8775C47.9148 22.9636 47.7857 23.0496 47.6996 23.1357C46.5808 23.1357 46.0213 23.6091 46.0213 24.5558C46.0213 24.9001 46.2795 25.3304 46.7959 25.8468C51.4435 26.2771 56.5214 29.5907 62.0299 35.7875C69.0013 43.8777 72.4869 55.5825 72.4869 70.9025V71.6771C72.4869 75.464 73.3045 77.3575 74.9398 77.3575C76.3169 77.3575 77.0914 76.2386 77.2635 74.0009" fill="black"/>
</svg>
