<svg width="79" height="85" viewBox="0 0 79 85" fill="none" xmlns="http://www.w3.org/2000/svg">
<path d="M39.1171 84.948C21.9901 84.948 13.2971 82.0648 13.0391 76.2983C12.6088 68.3802 11.2747 62.3983 9.03701 58.3533C8.09028 56.718 6.7562 54.7385 5.0349 52.4147C2.1086 48.5417 0.473405 45.2712 0.129105 42.6031C0.0430346 41.9146 0 41.183 0 40.4084C0 34.9862 2.2808 30.7259 6.8423 27.6274C7.9612 26.9388 9.1231 26.3794 10.328 25.9491C14.8895 24.3138 19.408 24.572 23.883 26.7237C25.5183 27.4983 27.1535 28.5311 28.7888 29.8221L28.9179 29.9512C28.9179 28.1438 29.004 26.2073 29.1761 24.1417C29.1761 23.5392 29.4773 22.7216 30.0798 21.6888C31.4569 19.4511 33.0921 17.6867 34.9856 16.3957C35.3299 16.2236 35.6741 16.0084 36.0184 15.7502V12.6518L30.7253 9.55339V4.90579H35.502L37.1803 0H41.0533L42.7316 4.90579H47.5083V9.55339L42.2152 12.6518V15.7502C46.6907 18.5904 48.9714 21.4306 49.0575 24.2708C49.2296 25.9921 49.3157 27.8856 49.3157 29.9512L49.4448 29.8221C54.867 25.2606 60.5478 23.7975 66.4858 25.4327C68.035 25.863 69.4981 26.5085 70.8752 27.3692C75.6949 30.2954 78.1478 34.6418 78.2339 40.4082C78.2339 43.8509 76.5126 47.939 73.0699 52.6722C70.2297 56.6313 68.4653 59.5145 67.7768 61.3219C66.3137 65.1949 65.453 70.1867 65.1948 76.2979C65.0227 82.0644 56.3302 84.948 39.1171 84.948Z" fill="white"/>
<path d="M39.1171 84.948C21.9901 84.948 13.2971 82.0648 13.0391 76.2983C12.6088 68.3802 11.2747 62.3983 9.03701 58.3533C8.09028 56.718 6.7562 54.7385 5.0349 52.4147C2.1086 48.5417 0.473405 45.2712 0.129105 42.6031C0.0430346 41.9146 0 41.183 0 40.4084C0 34.9862 2.2808 30.7259 6.8423 27.6274C7.9612 26.9388 9.1231 26.3794 10.328 25.9491C14.8895 24.3138 19.408 24.572 23.883 26.7237C25.5183 27.4983 27.1535 28.5311 28.7888 29.8221L28.9179 29.9512C28.9179 28.1438 29.004 26.2073 29.1761 24.1417C29.1761 23.5392 29.4773 22.7216 30.0798 21.6888C31.4569 19.4511 33.0921 17.6867 34.9856 16.3957C35.3299 16.2236 35.6741 16.0084 36.0184 15.7502V12.6518L30.7253 9.55339V4.90579H35.502L37.1803 0H41.0533L42.7316 4.90579H47.5083V9.55339L42.2152 12.6518V15.7502C46.6907 18.5904 48.9714 21.4306 49.0575 24.2708C49.2296 25.9921 49.3157 27.8856 49.3157 29.9512L49.4448 29.8221C54.867 25.2606 60.5478 23.7975 66.4858 25.4327C68.035 25.863 69.4981 26.5085 70.8752 27.3692C75.6949 30.2954 78.1478 34.6418 78.2339 40.4082C78.2339 43.8509 76.5126 47.939 73.0699 52.6722C70.2297 56.6313 68.4653 59.5145 67.7768 61.3219C66.3137 65.1949 65.453 70.1867 65.1948 76.2979C65.0227 82.0644 56.3299 84.9476 39.1168 84.9476L39.1171 84.948ZM39.1168 41.4406L42.8607 35.502C43.4632 34.211 43.9365 33.0061 44.2808 31.8872C44.453 31.2847 44.539 30.0368 44.539 28.1433C44.539 23.0654 42.7746 20.5264 39.2459 20.5264C35.5451 20.5264 33.6946 23.0654 33.6946 28.1433C33.6946 30.0368 33.7807 31.2847 33.9528 31.8872C34.6414 34.211 36.1045 36.9651 38.3422 40.1496C38.8586 40.7521 39.1168 41.1824 39.1168 41.4406H39.1168ZM73.5868 41.1824C73.5868 37.3094 72.2958 34.3401 69.7138 32.2745C67.5622 30.4671 65.0232 29.5634 62.0969 29.5634C58.3961 29.5634 54.3939 31.4568 50.0909 35.2438C45.013 39.6332 42.1297 45.5718 41.4412 53.0598C41.4412 53.6622 43.0334 54.3508 46.2179 55.1254C49.9188 55.8139 56.2016 56.1582 65.0669 56.1582L70.8764 48.4122C72.6838 45.6581 73.5875 43.2482 73.5875 41.1826L73.5868 41.1824ZM39.1175 58.6106C36.9658 59.5573 30.4248 60.375 19.4945 61.0635C17.8592 61.1496 16.5252 61.2356 15.4924 61.3217C16.3531 64.5922 16.9125 68.207 17.1707 72.1657C23.1093 70.2722 30.4247 69.3255 39.1177 69.3255C47.9825 69.3255 55.2987 70.2722 61.0647 72.1657C61.3229 67.8624 61.8824 64.2476 62.743 61.3217L43.636 59.7725C42.0007 59.5143 40.4946 59.127 39.1175 58.6106V58.6106ZM4.64754 41.1826C4.64754 43.8507 6.75613 47.8958 10.9734 53.3176C12.0062 54.6086 12.7378 55.5554 13.1681 56.1578H15.4919C24.3568 56.1578 30.8119 55.5553 34.8569 54.3504C36.1479 54.0061 36.7934 53.5758 36.7934 53.0594C36.1049 45.5716 33.2216 39.6334 28.1437 35.2434C23.9264 31.4565 19.9243 29.563 16.1377 29.563C14.9328 29.563 13.6418 29.8212 12.2647 30.3376C8.82204 31.1982 6.49823 33.479 5.29333 37.1799L4.64783 40.6656V41.182L4.64754 41.1826ZM39.1178 80.299C47.208 80.299 52.8028 79.7826 55.9008 78.7498C56.6754 78.4916 57.0627 78.1903 57.0627 77.846C57.0627 75.6083 51.1241 74.4894 39.2467 74.4894C34.6852 74.4894 30.2528 74.7907 25.9497 75.3932C22.7652 75.9095 21.173 76.7272 21.173 77.8461C21.173 79.1371 26.2509 79.9547 36.407 80.299H39.1181" fill="black"/>
</svg>
