<svg width="90" height="90" viewBox="0 0 90 90" fill="none" xmlns="http://www.w3.org/2000/svg">
<g clip-path="url(#clip0)">
<path d="M15.4529 82.7813L13 80.3284V71.4205L26.168 58.1235V32.3035L14.807 22.3628V10.6148L18.5509 7H30.1699L32.3646 9.1947V12.5513H36.1085V9.1947L38.3032 7H52.5042L54.6989 9.1947V12.5513H58.3137V9.1947L60.6375 7H72.2565L76.0004 10.6148V22.3628L64.6394 32.3035V58.1235L77.8074 71.4205V80.3284L75.3545 82.7813H15.4529Z" fill="white"/>
<path d="M30.6869 32.6903V55.5413H60.1219V32.6903H30.6869ZM15.4529 82.7813L13 80.3284V71.4205L26.168 58.1235V32.3035L14.807 22.3628V10.6148L18.5509 7H30.1699L32.3646 9.1947V12.5513H36.1085V9.1947L38.3032 7H52.5042L54.6989 9.1947V12.5513H58.3137V9.1947L60.6375 7H72.2565L76.0004 10.6148V22.3628L64.6394 32.3035V58.1235L77.8074 71.4205V80.3284L75.3545 82.7813H15.4525H15.4529ZM17.5181 72.5823V77.6172H73.2891V72.5823H17.5181ZM30.1701 59.8013L21.6495 68.0637H69.1585L60.6379 59.8013H30.1699H30.1701ZM40.4979 12.4213V15.7779L38.5614 17.5853H30.1699L28.2334 15.7779V12.1631H21.0038L19.3255 13.9705V21.2001L28.1043 28.3006H62.7033L71.4821 21.2001V13.9705L69.8038 12.1631H62.5742V15.7779L60.6377 17.5853H52.2462L50.3097 15.7779V12.4213H40.4981" fill="black"/>
</g>
<defs>
<clipPath id="clip0">
<rect width="90" height="90" fill="white"/>
</clipPath>
</defs>
</svg>
