<svg width="90" height="90" viewBox="0 0 90 90" fill="none" xmlns="http://www.w3.org/2000/svg">
<g clip-path="url(#clip0)">
<path d="M44.5901 3.74963C47.6884 3.74963 49.84 5.16973 51.045 8.00993L51.6906 10.5919V10.9792C51.6904 11.4956 51.3462 12.5714 50.6577 14.2067C49.4527 17.7354 48.8503 20.7908 48.8504 23.3728C48.8503 27.5901 49.797 33.8298 51.6906 42.0928C56.3381 32.2812 58.6619 24.8798 58.662 19.8878L57.8874 14.3365C57.8872 11.3242 59.2213 9.17255 61.8895 7.88155C62.8361 7.36516 63.8689 7.10696 64.9879 7.10696C68.0862 7.10696 70.2809 8.48396 71.572 11.2382C72.0883 12.271 72.3465 13.3038 72.3466 14.3366C72.3465 16.5743 71.5719 18.3387 70.0228 19.6297C67.6989 21.9535 66.494 25.7404 66.408 30.9907C66.4079 33.2285 66.623 36.8432 67.0535 41.8347C72.6477 36.0682 75.4449 31.3777 75.445 27.7627L74.7995 22.7278C74.7994 19.8876 76.0904 17.779 78.6725 16.4019C79.7052 15.7994 80.781 15.4981 81.9 15.4981C84.8262 15.4981 87.0208 16.8321 88.4841 19.5002L89.2587 21.9531V22.7277C89.2586 26.2565 87.2791 28.9245 83.3201 30.7319C83.1478 34.4328 81.7277 41.7049 79.0598 52.5499C78.8875 53.0663 78.7584 53.5397 78.6725 53.97C78.6724 55.1749 77.2953 57.2405 74.5413 60.1668C70.8403 63.8677 68.9899 66.7509 68.99 68.8165C68.9899 69.7632 70.0227 72.3022 72.0884 76.4334C72.4326 77.208 72.6047 78.3699 72.6048 79.9191V80.8228C72.5186 81.081 72.4756 81.3822 72.4757 81.7265V81.8556L72.6048 81.9847C72.6047 85.0831 64.2993 86.8044 47.6888 87.1487H44.4613L39.0391 87.0196H38.91C30.8196 86.7614 24.666 86.0729 20.449 84.954C17.7809 84.1794 16.4469 83.1897 16.4469 81.9847C16.5329 81.8987 16.5329 81.3822 16.4469 80.4355C16.3608 80.2634 16.3608 80.0912 16.4469 79.9191C16.4469 77.9396 17.0924 75.6588 18.3834 73.0768C19.4162 71.0112 19.9326 69.5911 19.9326 68.8165C19.9326 67.4394 19.201 65.8042 17.7379 63.9107L11.412 56.6811C10.7235 55.7344 10.3792 54.8307 10.3792 53.97C7.71107 43.04 6.20497 35.939 5.86067 32.669C5.77461 31.9805 5.73157 31.335 5.73157 30.7325C1.77247 28.9251 -0.207031 26.2571 -0.207031 22.7283C-0.207031 19.8881 1.08397 17.7795 3.66597 16.4024C4.78487 15.7999 5.90377 15.4987 7.02257 15.4987C10.0349 15.4987 12.1866 16.8758 13.4776 19.6299C13.994 20.5766 14.2522 21.6094 14.2522 22.7283L13.6066 27.7632C13.6066 31.5501 16.3607 36.2408 21.869 41.8352C22.2994 38.0483 22.5145 34.4335 22.5145 30.9912C22.5145 26.2576 21.9551 23.1161 20.8362 21.5669C20.4059 20.9644 19.7604 20.2759 18.8997 19.5013C17.3505 18.4685 16.5759 16.7472 16.5759 14.3373C16.5759 11.325 17.996 9.13029 20.8362 7.75319C21.783 7.32284 22.8158 7.1077 23.9347 7.1077C26.947 7.1077 29.0986 8.48469 30.3896 11.2389C30.9059 12.1856 31.1641 13.2184 31.1642 14.3373L30.3896 19.7595V19.8886C30.3896 24.7944 32.7134 32.1966 37.3611 42.0936C39.1684 34.2616 40.072 28.0216 40.0721 23.3736C40.072 19.931 39.4266 16.6604 38.1357 13.562C37.6192 12.3571 37.361 11.4964 37.3611 10.98C37.361 7.9677 38.738 5.81599 41.4923 4.52499C42.4389 4.0086 43.4711 3.74963 44.5901 3.74963Z" fill="white"/>
<path d="M41.6199 58.1H47.3004C48.5913 58.1 50.1404 58.143 51.9479 58.2291L64.7289 59.0037H64.8581C66.4072 59.0037 67.1818 58.7885 67.1819 58.3582V57.8418C67.1817 55.2598 61.4583 53.5815 50.0118 52.8069C47.9461 52.6348 46.1388 52.5487 44.5897 52.5487C36.1551 52.5487 29.6566 53.4094 25.0956 55.1307C23.03 55.9053 21.9973 56.809 21.9973 57.8418V58.3582C21.9973 58.7885 22.7719 59.0037 24.321 59.0037L41.6199 58.1ZM65.5031 63.9095C58.7037 63.0489 51.7321 62.6185 44.5891 62.6185C37.1012 62.6185 30.13 63.0489 23.675 63.9095C24.7078 64.7702 25.2242 66.4485 25.2242 68.9444C25.2242 70.5797 24.9661 71.5694 24.4497 71.9137C29.6137 70.967 36.3267 70.4936 44.5897 70.4936C52.8527 70.4936 59.5647 70.967 64.7297 71.9137C64.2132 71.5695 63.9549 70.5797 63.955 68.9444C63.9549 66.4484 64.4714 64.7702 65.5043 63.9095H65.5031ZM44.5903 75.0125C40.2008 75.0125 35.295 75.2277 29.8733 75.658C25.656 76.0023 23.5474 76.992 23.5474 78.6273C23.5474 80.7789 30.5618 81.8548 44.5904 81.8548C58.619 81.8548 65.6334 80.779 65.6334 78.6273C65.6333 77.9388 65.0738 77.2933 63.955 76.6908C60.6844 75.5719 54.2297 75.0125 44.5903 75.0125ZM44.5901 7.49353C42.4383 7.49353 41.3624 8.52633 41.3625 10.5919C41.3624 12.8296 42.4383 13.9485 44.5901 13.9485C46.6556 13.9485 47.6883 12.8296 47.6884 10.5919C47.6883 8.52633 46.6556 7.49353 44.5901 7.49353ZM44.5901 3.74963C47.6884 3.74963 49.84 5.16973 51.045 8.00993L51.6906 10.5919V10.9792C51.6904 11.4956 51.3462 12.5714 50.6577 14.2067C49.4527 17.7354 48.8503 20.7908 48.8504 23.3728C48.8503 27.5901 49.797 33.8298 51.6906 42.0928C56.3381 32.2812 58.6619 24.8798 58.662 19.8878L57.8874 14.3365C57.8872 11.3242 59.2213 9.17255 61.8895 7.88155C62.8361 7.36516 63.8689 7.10696 64.9879 7.10696C68.0862 7.10696 70.2809 8.48396 71.572 11.2382C72.0883 12.271 72.3465 13.3038 72.3466 14.3366C72.3465 16.5743 71.5719 18.3387 70.0228 19.6297C67.6989 21.9535 66.494 25.7404 66.408 30.9907C66.4079 33.2285 66.623 36.8432 67.0535 41.8347C72.6477 36.0682 75.4449 31.3777 75.445 27.7627L74.7995 22.7278C74.7994 19.8876 76.0904 17.779 78.6725 16.4019C79.7052 15.7994 80.781 15.4981 81.9 15.4981C84.8262 15.4981 87.0208 16.8321 88.4841 19.5002L89.2587 21.9531V22.7277C89.2586 26.2565 87.2791 28.9245 83.3201 30.7319C83.1478 34.4328 81.7277 41.7049 79.0598 52.5499C78.8875 53.0663 78.7584 53.5397 78.6725 53.97C78.6724 55.1749 77.2953 57.2405 74.5413 60.1668C70.8403 63.8677 68.9899 66.7509 68.99 68.8165C68.9899 69.7632 70.0227 72.3022 72.0884 76.4334C72.4326 77.208 72.6047 78.3699 72.6048 79.9191V80.8228C72.5186 81.081 72.4756 81.3822 72.4757 81.7265V81.8556L72.6048 81.9847C72.6047 85.0831 64.2993 86.8044 47.6888 87.1487H44.4613L39.0391 87.0196H38.91C30.8196 86.7614 24.666 86.0729 20.449 84.954C17.7809 84.1794 16.4469 83.1897 16.4469 81.9847C16.5329 81.8987 16.5329 81.3822 16.4469 80.4355C16.3608 80.2634 16.3608 80.0912 16.4469 79.9191C16.4469 77.9396 17.0924 75.6588 18.3834 73.0768C19.4162 71.0112 19.9326 69.5911 19.9326 68.8165C19.9326 67.4394 19.201 65.8042 17.7379 63.9107L11.412 56.6811C10.7235 55.7344 10.3792 54.8307 10.3792 53.97C7.71107 43.04 6.20497 35.939 5.86067 32.669C5.77461 31.9805 5.73157 31.335 5.73157 30.7325C1.77247 28.9251 -0.207031 26.2571 -0.207031 22.7283C-0.207031 19.8881 1.08397 17.7795 3.66597 16.4024C4.78487 15.7999 5.90377 15.4987 7.02257 15.4987C10.0349 15.4987 12.1866 16.8758 13.4776 19.6299C13.994 20.5766 14.2522 21.6094 14.2522 22.7283L13.6066 27.7632C13.6066 31.5501 16.3607 36.2408 21.869 41.8352C22.2994 38.0483 22.5145 34.4335 22.5145 30.9912C22.5145 26.2576 21.9551 23.1161 20.8362 21.5669C20.4059 20.9644 19.7604 20.2759 18.8997 19.5013C17.3505 18.4685 16.5759 16.7472 16.5759 14.3373C16.5759 11.325 17.996 9.13029 20.8362 7.75319C21.783 7.32284 22.8158 7.1077 23.9347 7.1077C26.947 7.1077 29.0986 8.48469 30.3896 11.2389C30.9059 12.1856 31.1641 13.2184 31.1642 14.3373L30.3896 19.7595V19.8886C30.3896 24.7944 32.7134 32.1966 37.3611 42.0936C39.1684 34.2616 40.072 28.0216 40.0721 23.3736C40.072 19.931 39.4266 16.6604 38.1357 13.562C37.6192 12.3571 37.361 11.4964 37.3611 10.98C37.361 7.9677 38.738 5.81599 41.4923 4.52499C42.4389 4.0086 43.4711 3.74963 44.5901 3.74963ZM81.9007 19.6294C80.5235 19.6294 79.5338 20.3179 78.9314 21.695C78.8452 22.0393 78.8021 22.3835 78.8022 22.7278C78.8021 24.4491 79.5768 25.525 81.1261 25.9553C81.3842 26.0414 81.6424 26.0844 81.9007 26.0844C84.0522 26.0844 85.1281 24.9655 85.1282 22.7278C85.1281 20.6622 84.0522 19.6294 81.9007 19.6294ZM64.9887 11.367C63.5255 11.367 62.5357 12.0986 62.0194 13.5617L61.8903 14.5945C61.8902 16.1437 62.6217 17.1765 64.085 17.6929C64.3431 17.779 64.6443 17.822 64.9887 17.822C67.2263 17.822 68.3452 16.7462 68.3453 14.5945C68.3454 12.4428 67.2263 11.367 64.9887 11.367ZM23.9347 11.367C21.7831 11.367 20.7072 12.4428 20.7072 14.5945C20.7072 16.7462 21.783 17.822 23.9347 17.822C26.0003 17.822 27.0331 16.7462 27.0331 14.5945C27.0331 12.4428 26.0003 11.367 23.9347 11.367ZM7.02267 19.6294C4.87107 19.6294 3.79517 20.6622 3.79517 22.7278C3.79517 24.9656 4.87097 26.0844 7.02267 26.0844C9.08827 26.0844 10.1211 24.9655 10.1211 22.7278C10.1211 21.2647 9.38951 20.2749 7.92638 19.7585C7.66816 19.6724 7.36695 19.6294 7.02267 19.6294ZM44.5906 27.8918C43.3856 35.4656 41.8365 40.9308 39.9431 44.2878L38.0066 47.3862V47.5153C37.7482 47.2571 36.6294 45.9661 34.65 43.6423C32.154 40.716 29.5289 35.1647 26.7748 26.9883C26.947 28.1932 27.0331 29.4412 27.0331 30.7322C27.0331 34.7773 26.3015 41.0172 24.8383 49.4522C20.1907 46.6981 15.6723 42.3087 11.2834 36.2842C12.7465 43.6859 13.8654 48.5482 14.64 50.8722C15.1564 52.5935 15.8018 53.5833 16.5764 53.8415C23.6339 49.7964 32.9725 47.7738 44.5915 47.7738C56.2965 47.7738 65.6344 49.7964 72.6064 53.8415C74.1555 53.3251 75.8768 47.4726 77.7704 36.2835C73.2948 42.4803 68.8195 46.8695 64.3445 49.4515C62.8813 41.9637 62.1496 36.0685 62.1497 31.7645C62.1496 30.6456 62.2357 29.0534 62.4079 26.9878C60.6865 32.1518 58.7069 36.7563 56.4693 40.8018C55.2643 42.6092 53.9302 44.3305 52.4672 45.9658C51.7786 46.6544 51.3482 47.1707 51.1762 47.515L48.336 42.4801C48.2499 42.1359 48.1208 41.7916 47.9488 41.4473C47.2601 39.5538 46.1413 35.0353 44.5922 27.8923" fill="black"/>
<path d="M41.6199 58.1H47.3004C48.5913 58.1 50.1404 58.143 51.9479 58.2291L64.7289 59.0037H64.8581C66.4072 59.0037 67.1818 58.7885 67.1819 58.3582V57.8418C67.1817 55.2598 61.4583 53.5815 50.0118 52.8069C47.9461 52.6348 46.1388 52.5487 44.5897 52.5487C36.1551 52.5487 29.6566 53.4094 25.0956 55.1307C23.03 55.9053 21.9973 56.809 21.9973 57.8418V58.3582C21.9973 58.7885 22.7719 59.0037 24.321 59.0037L41.6199 58.1ZM65.5031 63.9095C58.7037 63.0489 51.7321 62.6185 44.5891 62.6185C37.1012 62.6185 30.13 63.0489 23.675 63.9095C24.7078 64.7702 25.2242 66.4485 25.2242 68.9444C25.2242 70.5797 24.9661 71.5694 24.4497 71.9137C29.6137 70.967 36.3267 70.4936 44.5897 70.4936C52.8527 70.4936 59.5647 70.967 64.7297 71.9137C64.2132 71.5695 63.9549 70.5797 63.955 68.9444C63.9549 66.4484 64.4714 64.7702 65.5043 63.9095H65.5031ZM44.5903 75.0125C40.2008 75.0125 35.295 75.2277 29.8733 75.658C25.656 76.0023 23.5474 76.992 23.5474 78.6273C23.5474 80.7789 30.5618 81.8548 44.5904 81.8548C58.619 81.8548 65.6334 80.779 65.6334 78.6273C65.6333 77.9388 65.0738 77.2933 63.955 76.6908C60.6844 75.5719 54.2297 75.0125 44.5903 75.0125ZM44.5901 7.49353C42.4383 7.49353 41.3624 8.52633 41.3625 10.5919C41.3624 12.8296 42.4383 13.9485 44.5901 13.9485C46.6556 13.9485 47.6883 12.8296 47.6884 10.5919C47.6883 8.52633 46.6556 7.49353 44.5901 7.49353ZM44.5901 3.74963C47.6884 3.74963 49.84 5.16973 51.045 8.00993L51.6906 10.5919V10.9792C51.6904 11.4956 51.3462 12.5714 50.6577 14.2067C49.4527 17.7354 48.8503 20.7908 48.8504 23.3728C48.8503 27.5901 49.797 33.8298 51.6906 42.0928C56.3381 32.2812 58.6619 24.8798 58.662 19.8878L57.8874 14.3365C57.8872 11.3242 59.2213 9.17255 61.8895 7.88155C62.8361 7.36516 63.8689 7.10696 64.9879 7.10696C68.0862 7.10696 70.2809 8.48396 71.572 11.2382C72.0883 12.271 72.3465 13.3038 72.3466 14.3366C72.3465 16.5743 71.5719 18.3387 70.0228 19.6297C67.6989 21.9535 66.494 25.7404 66.408 30.9907C66.4079 33.2285 66.623 36.8432 67.0535 41.8347C72.6477 36.0682 75.4449 31.3777 75.445 27.7627L74.7995 22.7278C74.7994 19.8876 76.0904 17.779 78.6725 16.4019C79.7052 15.7994 80.781 15.4981 81.9 15.4981C84.8262 15.4981 87.0208 16.8321 88.4841 19.5002L89.2587 21.9531V22.7277C89.2586 26.2565 87.2791 28.9245 83.3201 30.7319C83.1478 34.4328 81.7277 41.7049 79.0598 52.5499C78.8875 53.0663 78.7584 53.5397 78.6725 53.97C78.6724 55.1749 77.2953 57.2405 74.5413 60.1668C70.8403 63.8677 68.9899 66.7509 68.99 68.8165C68.9899 69.7632 70.0227 72.3022 72.0884 76.4334C72.4326 77.208 72.6047 78.3699 72.6048 79.9191V80.8228C72.5186 81.081 72.4756 81.3822 72.4757 81.7265V81.8556L72.6048 81.9847C72.6047 85.0831 64.2993 86.8044 47.6888 87.1487H44.4613L39.0391 87.0196H38.91C30.8196 86.7614 24.666 86.0729 20.449 84.954C17.7809 84.1794 16.4469 83.1897 16.4469 81.9847C16.5329 81.8987 16.5329 81.3822 16.4469 80.4355C16.3608 80.2634 16.3608 80.0912 16.4469 79.9191C16.4469 77.9396 17.0924 75.6588 18.3834 73.0768C19.4162 71.0112 19.9326 69.5911 19.9326 68.8165C19.9326 67.4394 19.201 65.8042 17.7379 63.9107L11.412 56.6811C10.7235 55.7344 10.3792 54.8307 10.3792 53.97C7.71107 43.04 6.20497 35.939 5.86067 32.669C5.77461 31.9805 5.73157 31.335 5.73157 30.7325C1.77247 28.9251 -0.207031 26.2571 -0.207031 22.7283C-0.207031 19.8881 1.08397 17.7795 3.66597 16.4024C4.78487 15.7999 5.90377 15.4987 7.02257 15.4987C10.0349 15.4987 12.1866 16.8758 13.4776 19.6299C13.994 20.5766 14.2522 21.6094 14.2522 22.7283L13.6066 27.7632C13.6066 31.5501 16.3607 36.2408 21.869 41.8352C22.2994 38.0483 22.5145 34.4335 22.5145 30.9912C22.5145 26.2576 21.9551 23.1161 20.8362 21.5669C20.4059 20.9644 19.7604 20.2759 18.8997 19.5013C17.3505 18.4685 16.5759 16.7472 16.5759 14.3373C16.5759 11.325 17.996 9.13029 20.8362 7.75319C21.783 7.32284 22.8158 7.1077 23.9347 7.1077C26.947 7.1077 29.0986 8.48469 30.3896 11.2389C30.9059 12.1856 31.1641 13.2184 31.1642 14.3373L30.3896 19.7595V19.8886C30.3896 24.7944 32.7134 32.1966 37.3611 42.0936C39.1684 34.2616 40.072 28.0216 40.0721 23.3736C40.072 19.931 39.4266 16.6604 38.1357 13.562C37.6192 12.3571 37.361 11.4964 37.3611 10.98C37.361 7.9677 38.738 5.81599 41.4923 4.52499C42.4389 4.0086 43.4711 3.74963 44.5901 3.74963ZM81.9007 19.6294C80.5235 19.6294 79.5338 20.3179 78.9314 21.695C78.8452 22.0393 78.8021 22.3835 78.8022 22.7278C78.8021 24.4491 79.5768 25.525 81.1261 25.9553C81.3842 26.0414 81.6424 26.0844 81.9007 26.0844C84.0522 26.0844 85.1281 24.9655 85.1282 22.7278C85.1281 20.6622 84.0522 19.6294 81.9007 19.6294ZM64.9887 11.367C63.5255 11.367 62.5357 12.0986 62.0194 13.5617L61.8903 14.5945C61.8902 16.1437 62.6217 17.1765 64.085 17.6929C64.3431 17.779 64.6443 17.822 64.9887 17.822C67.2263 17.822 68.3452 16.7462 68.3453 14.5945C68.3454 12.4428 67.2263 11.367 64.9887 11.367ZM23.9347 11.367C21.7831 11.367 20.7072 12.4428 20.7072 14.5945C20.7072 16.7462 21.783 17.822 23.9347 17.822C26.0003 17.822 27.0331 16.7462 27.0331 14.5945C27.0331 12.4428 26.0003 11.367 23.9347 11.367ZM7.02267 19.6294C4.87107 19.6294 3.79517 20.6622 3.79517 22.7278C3.79517 24.9656 4.87097 26.0844 7.02267 26.0844C9.08827 26.0844 10.1211 24.9655 10.1211 22.7278C10.1211 21.2647 9.38951 20.2749 7.92638 19.7585C7.66816 19.6724 7.36695 19.6294 7.02267 19.6294ZM44.5906 27.8918C43.3856 35.4656 41.8365 40.9308 39.9431 44.2878L38.0066 47.3862V47.5153C37.7482 47.2571 36.6294 45.9661 34.65 43.6423C32.154 40.716 29.5289 35.1647 26.7748 26.9883C26.947 28.1932 27.0331 29.4412 27.0331 30.7322C27.0331 34.7773 26.3015 41.0172 24.8383 49.4522C20.1907 46.6981 15.6723 42.3087 11.2834 36.2842C12.7465 43.6859 13.8654 48.5482 14.64 50.8722C15.1564 52.5935 15.8018 53.5833 16.5764 53.8415C23.6339 49.7964 32.9725 47.7738 44.5915 47.7738C56.2965 47.7738 65.6344 49.7964 72.6064 53.8415C74.1555 53.3251 75.8768 47.4726 77.7704 36.2835C73.2948 42.4803 68.8195 46.8695 64.3445 49.4515C62.8813 41.9637 62.1496 36.0685 62.1497 31.7645C62.1496 30.6456 62.2357 29.0534 62.4079 26.9878C60.6865 32.1518 58.7069 36.7563 56.4693 40.8018C55.2643 42.6092 53.9302 44.3305 52.4672 45.9658C51.7786 46.6544 51.3482 47.1707 51.1762 47.515L48.336 42.4801C48.2499 42.1359 48.1208 41.7916 47.9488 41.4473C47.2601 39.5538 46.1413 35.0353 44.5922 27.8923" fill="black"/>
</g>
<defs>
<clipPath id="clip0">
<rect width="90" height="90" fill="white"/>
</clipPath>
</defs>
</svg>
