<svg width="90" height="90" viewBox="0 0 90 90" fill="none" xmlns="http://www.w3.org/2000/svg">
<g clip-path="url(#clip0)">
<path d="M17.1292 82.9108C17.0431 81.878 17 79.8985 17 76.9722C17 66.3862 20.0984 58.4682 26.2952 53.2182C28.3608 51.4969 30.9857 49.8186 34.1703 48.1833C30.8998 47.1505 28.7051 44.6545 27.5862 40.6955C27.1559 39.4045 26.9407 38.0705 26.9407 36.6934C26.9407 30.927 29.867 26.7957 35.7195 24.2994C34.3423 21.8034 33.6538 19.3506 33.6539 16.9407C33.6538 12.9816 35.5903 10.0554 39.4634 8.1619C41.0986 7.38729 42.8629 7 44.7565 7C49.1458 7 52.3733 8.6783 54.439 12.0349C55.3857 13.498 55.859 15.1333 55.8591 16.9407C55.859 19.2645 55.0844 21.7174 53.5353 24.2994C59.4738 26.7093 62.4431 30.8404 62.4432 36.6934C62.4431 41.255 60.7648 44.6976 57.4083 47.0214C56.7197 47.5378 55.9451 47.9251 55.0845 48.1833C62.8304 52.1424 67.8655 57.1773 70.1895 63.2883C71.6525 67.0752 72.3841 71.6368 72.3842 76.9733C72.3841 79.8135 72.3411 81.793 72.2551 82.9119H17.1291" fill="white"/>
<path d="M67.7356 77.7472C67.7355 68.7102 65.2826 61.9542 60.3769 57.4782C58.7415 55.929 56.719 54.4659 54.3092 53.0888C50.9525 51.1093 49.2743 49.3019 49.2744 47.6666C49.2743 46.8059 50.1349 45.8592 51.8563 44.8264C54.5243 43.3633 56.1165 41.6419 56.633 39.6624C56.805 38.8878 56.8911 37.9411 56.8912 36.8222C56.8911 32.8631 54.8685 29.7647 50.8235 27.527L48.4997 25.8487C48.0692 25.4184 47.8541 24.945 47.8542 24.4286C47.8541 22.9655 48.3705 21.5023 49.4034 20.0392C50.0919 19.0925 50.4361 17.9736 50.4362 16.6826C50.4361 14.4449 49.2312 12.8096 46.8214 11.7768C46.0467 11.5186 45.2721 11.3895 44.4976 11.3895C42.0876 11.3895 40.3663 12.4653 39.3336 14.617C38.9893 15.3055 38.8171 15.9941 38.8172 16.6826C38.8171 17.4572 39.3765 18.9203 40.4955 21.072C41.1839 22.2769 41.4852 23.3958 41.3992 24.4286C41.3991 25.4614 40.4093 26.4942 38.4299 27.527C34.4707 29.8508 32.4912 32.9492 32.4913 36.8222C32.4912 40.1788 34.1695 42.8469 37.5262 44.8264C39.1614 45.9452 39.979 46.892 39.9791 47.6666C39.979 49.3019 38.3007 51.1093 34.9442 53.0888C28.7474 56.8757 24.7882 61.4803 23.0672 66.9028C22.1205 69.9151 21.6471 73.5299 21.6471 77.7468H67.7361L67.7356 77.7472ZM17.1292 82.9108C17.0431 81.878 17 79.8985 17 76.9722C17 66.3862 20.0984 58.4682 26.2952 53.2182C28.3608 51.4969 30.9857 49.8186 34.1703 48.1833C30.8998 47.1505 28.7051 44.6545 27.5862 40.6955C27.1559 39.4045 26.9407 38.0705 26.9407 36.6934C26.9407 30.927 29.867 26.7957 35.7195 24.2994C34.3423 21.8034 33.6538 19.3506 33.6539 16.9407C33.6538 12.9816 35.5903 10.0554 39.4634 8.1619C41.0986 7.38729 42.8629 7 44.7565 7C49.1458 7 52.3733 8.6783 54.439 12.0349C55.3857 13.498 55.859 15.1333 55.8591 16.9407C55.859 19.2645 55.0844 21.7174 53.5353 24.2994C59.4738 26.7093 62.4431 30.8404 62.4432 36.6934C62.4431 41.255 60.7648 44.6976 57.4083 47.0214C56.7197 47.5378 55.9451 47.9251 55.0845 48.1833C62.8304 52.1424 67.8655 57.1773 70.1895 63.2883C71.6525 67.0752 72.3841 71.6368 72.3842 76.9733C72.3841 79.8135 72.3411 81.793 72.2551 82.9119H17.1291" fill="black"/>
</g>
<defs>
<clipPath id="clip0">
<rect width="90" height="90" fill="white"/>
</clipPath>
</defs>
</svg>
