<svg width="90" height="90" viewBox="0 0 90 90" fill="none" xmlns="http://www.w3.org/2000/svg">
<g clip-path="url(#clip0)">
<path d="M45.0601 79.6581C41.7034 83.0147 36.6255 85.0803 29.8261 85.8549C27.072 86.1131 22.2522 86.7156 15.3671 87.6623C13.5597 88.0066 12.5269 88.8242 12.2687 90.1152C10.6334 89.6849 8.22362 87.0168 5.03912 82.111C4.26452 80.9061 3.70514 80.0884 3.36084 79.6581C6.20104 74.2359 9.72974 71.5248 13.9468 71.5248L21.5637 71.9121C25.0924 71.9121 29.2236 71.0945 33.9577 69.4592C27.847 68.6846 24.7916 66.8342 24.7916 63.9079L27.3737 54.0963V53.8381C22.2097 48.1577 19.6276 42.8211 19.6276 37.8301C19.6276 32.1497 22.4248 26.9861 28.0191 22.3381C32.9248 18.2069 36.5397 16.0122 38.8632 15.754C36.9696 13.4302 36.0228 11.0204 36.0229 8.5244C36.0228 4.5653 38.0023 2.06939 41.9615 1.03659C42.9082 0.778501 43.9409 0.649402 45.0599 0.649292C49.2771 0.649402 52.0312 2.24148 53.3223 5.42598L53.9678 8.13708V8.52437C53.9677 11.1925 53.064 13.6023 51.2567 15.754C53.5804 16.0122 57.2382 18.2499 62.2307 22.4672C67.7388 27.0287 70.493 32.1497 70.4931 37.8302C70.493 42.6499 67.911 47.9861 62.7471 53.8382C62.747 55.0432 63.1774 56.7645 64.0381 59.0022C64.8987 61.7563 65.329 63.3916 65.3291 63.908C65.329 66.8343 62.2736 68.6847 56.163 69.4593C60.8105 71.0946 64.9417 71.9122 68.557 71.9122L76.174 71.5249C80.3911 71.5249 83.9198 74.236 86.7599 79.6582L82.3705 86.3714C80.9073 88.2649 79.4012 89.5128 77.8521 90.1153C77.5077 88.394 75.0118 87.3181 70.3643 86.8878C70.9666 86.8878 69.6756 86.7587 66.4912 86.5005C55.7332 85.4677 48.5891 83.1868 45.0601 79.6581Z" fill="white"/>
<path d="M45.06 52.16C39.0352 52.16 34.345 51.9018 30.988 51.3854C31.5903 52.5903 31.8916 53.6231 31.8917 54.4838C31.8916 55.7748 31.6334 56.8506 31.1171 57.7113C33.6129 56.9367 38.2605 56.5494 45.0601 56.5494C51.8597 56.5494 56.5071 56.9367 59.0031 57.7113C58.4866 56.8506 58.2284 55.7748 58.2285 54.4838C58.2284 53.451 58.4866 52.4182 59.0031 51.3854C54.9579 51.9018 50.3103 52.16 45.0601 52.16H45.06ZM45.0601 5.42601C43.2526 5.42601 42.0046 6.24363 41.3162 7.87892C41.144 8.30925 41.0579 8.7396 41.058 9.16992C41.0579 11.0634 42.0046 12.3113 43.8982 12.9138C44.2424 12.9999 44.6297 13.0429 45.0601 13.0429C47.0395 13.0429 48.3305 12.1392 48.9331 10.3318C49.0191 9.98755 49.0621 9.60024 49.0622 9.16992C49.0621 7.44862 48.2014 6.28672 46.4802 5.68422C45.9637 5.51208 45.4903 5.42604 45.0601 5.42604V5.42601ZM45.0601 60.293C41.7895 60.293 37.5722 60.5943 32.4081 61.1967C30.945 61.3689 30.0843 62.1865 29.8261 63.6496C29.8261 64.6824 32.1928 65.3279 36.9266 65.5861C36.4962 65.5001 36.6683 65.457 37.4431 65.457H45.0599C55.1299 65.457 60.1649 64.8546 60.1649 63.6496C60.1648 61.6701 57.6689 60.5942 52.6771 60.4221H48.9332C47.8142 60.4221 46.8675 60.3791 46.093 60.293H45.0602L45.0601 60.293ZM44.9311 48.416C54.5705 48.416 60.4661 47.5123 62.6181 45.7049C64.0811 44.586 65.1569 41.6167 65.8456 36.797C65.4152 32.4937 62.618 28.3625 57.4541 24.403C52.6343 20.6161 48.417 18.5074 44.8021 18.0771C41.4454 18.5075 37.3572 20.6161 32.5381 24.403C27.4602 28.3621 24.7061 32.4933 24.2757 36.797C24.8782 41.2725 25.8249 44.1127 27.1159 45.3176C27.4602 45.6619 27.8475 45.9631 28.2778 46.2213C30.4295 47.6845 35.9807 48.416 44.9318 48.416H44.9311ZM42.7371 42.0901V36.4097H38.3477V31.3748H42.7371V25.8235H47.3847V31.3748H51.7741V36.4097H47.3847V42.0901H42.7371ZM44.8027 68.4261C44.028 68.4261 41.7472 69.9323 37.9604 72.9446C35.2922 74.752 30.989 75.8278 25.0504 76.1721C20.7471 76.1721 17.3044 76.3873 14.7224 76.8176C11.9683 77.4201 10.5912 78.582 10.5912 80.3033C10.8494 82.0246 11.7531 82.8853 13.3023 82.8853L20.1446 81.8525C24.62 81.8525 29.3107 81.2501 34.2166 80.0451C39.8108 78.582 43.4256 76.2582 45.0606 73.0737C47.3843 77.6353 53.4089 80.3894 63.1346 81.3361L66.4912 81.8525H69.8478L76.8192 82.8853C78.3683 82.8853 79.272 82.0247 79.5303 80.3033C79.5302 78.582 78.1531 77.4201 75.3991 76.8176L61.5851 75.7848C57.1956 75.4405 52.9783 73.7192 48.9331 70.6208C47.1256 69.1576 45.7485 68.4261 44.8019 68.4261H44.8027ZM45.0601 79.6581C41.7034 83.0147 36.6255 85.0803 29.8261 85.8549C27.072 86.1131 22.2522 86.7156 15.3671 87.6623C13.5597 88.0066 12.5269 88.8242 12.2687 90.1152C10.6334 89.6849 8.22362 87.0168 5.03912 82.111C4.26452 80.9061 3.70514 80.0884 3.36084 79.6581C6.20104 74.2359 9.72974 71.5248 13.9468 71.5248L21.5637 71.9121C25.0924 71.9121 29.2236 71.0945 33.9577 69.4592C27.847 68.6846 24.7916 66.8342 24.7916 63.9079L27.3737 54.0963V53.8381C22.2097 48.1577 19.6276 42.8211 19.6276 37.8301C19.6276 32.1497 22.4248 26.9861 28.0191 22.3381C32.9248 18.2069 36.5397 16.0122 38.8632 15.754C36.9696 13.4302 36.0228 11.0204 36.0229 8.5244C36.0228 4.5653 38.0023 2.06939 41.9615 1.03659C42.9082 0.778501 43.9409 0.649402 45.0599 0.649292C49.2771 0.649402 52.0312 2.24148 53.3223 5.42598L53.9678 8.13708V8.52437C53.9677 11.1925 53.064 13.6023 51.2567 15.754C53.5804 16.0122 57.2382 18.2499 62.2307 22.4672C67.7388 27.0287 70.493 32.1497 70.4931 37.8302C70.493 42.6499 67.911 47.9861 62.7471 53.8382C62.747 55.0432 63.1774 56.7645 64.0381 59.0022C64.8987 61.7563 65.329 63.3916 65.3291 63.908C65.329 66.8343 62.2736 68.6847 56.163 69.4593C60.8105 71.0946 64.9417 71.9122 68.557 71.9122L76.174 71.5249C80.3911 71.5249 83.9198 74.236 86.7599 79.6582L82.3705 86.3714C80.9073 88.2649 79.4012 89.5128 77.8521 90.1153C77.5077 88.394 75.0118 87.3181 70.3643 86.8878C70.9666 86.8878 69.6756 86.7587 66.4912 86.5005C55.7332 85.4677 48.5892 83.1869 45.0602 79.6582" fill="black"/>
</g>
<defs>
<clipPath id="clip0">
<rect width="90" height="90" fill="white"/>
</clipPath>
</defs>
</svg>
