<svg width="90" height="90" viewBox="0 0 90 90" fill="none" xmlns="http://www.w3.org/2000/svg">
<g clip-path="url(#clip0)">
<path d="M82.5563 83.2975H28.4633C28.8076 77.3589 31.0453 71.6785 35.1765 66.2565C38.361 61.9532 40.2544 59.3281 40.8569 58.3814C42.0618 56.4879 42.7934 54.2072 43.0516 51.5391C37.4573 53.9489 33.1109 57.3916 30.0126 61.8671L28.2052 64.8364C26.9142 66.902 26.0966 68.0639 25.7523 68.3221C25.2359 68.7524 24.6765 68.9676 24.074 68.9676C21.406 68.9676 19.5985 68.0639 18.6518 66.2565C18.4796 65.9983 18.3936 65.6971 18.3936 65.3528C17.5329 65.7831 16.6723 65.9983 15.8116 65.9983C11.6804 65.9983 8.4099 63.4163 6 58.2523C6.68853 54.4654 10.3033 45.7293 16.844 32.0453C17.5325 30.7543 18.049 29.7215 18.3932 28.9469C20.9752 23.1804 22.2662 18.8339 22.2662 15.9079C22.2662 15.4776 22.008 13.0677 21.4916 8.6783H22.5244C27.172 8.6783 31.6044 10.1414 35.8214 13.0677C38.1452 9.0226 40.0817 7 41.6309 7C44.385 8.4631 46.2785 10.5287 47.3113 13.1968L48.7314 17.4571C49.592 17.285 50.3236 17.1989 50.9261 17.1989C57.8114 17.1989 64.6111 21.5883 71.3241 30.3669C79.1562 40.6089 83.0721 54.6379 83.0721 72.4539C83.0721 76.499 82.9005 80.1134 82.5563 83.2975Z" fill="white"/>
<path d="M15.2959 52.8291C16.5008 52.8291 17.1033 53.6467 17.1033 55.282C17.1033 57.4337 16.0275 58.5095 13.8758 58.5095C13.0151 58.5095 12.5848 57.821 12.5848 56.4439C12.5848 54.034 13.4885 52.8291 15.2959 52.8291ZM24.5911 37.0791C23.3862 37.0791 22.7837 36.3476 22.7837 34.8844C22.7837 32.5606 24.1608 30.6672 26.9149 29.204C28.1198 28.6015 29.2387 28.3003 30.2715 28.3003C32.0789 28.3003 33.0687 28.9028 33.2408 30.1077C33.2408 32.0872 31.6916 33.9807 28.5932 35.7881C27.044 36.6488 25.71 37.0791 24.5911 37.0791V37.0791ZM25.6239 12.8081C25.9682 14.013 26.1403 14.8307 26.1403 15.261C26.1403 15.5192 26.0112 16.2077 25.753 17.3266C27.1301 17.3266 29.0235 16.6381 31.4333 15.261C29.1095 14.0561 27.173 13.2384 25.6238 12.8081H25.6239ZM10.2609 57.2181C10.7773 59.2837 12.1544 60.7899 14.3921 61.7366C15.2528 62.0809 16.0704 62.253 16.845 62.253H17.1031C17.2753 62.253 18.2221 61.7366 19.9434 60.7038C20.4597 60.3595 20.8901 60.1874 21.2344 60.1874H21.7508C22.1811 60.1874 22.3963 60.4456 22.3963 60.962L21.6217 63.4149C21.6217 64.1895 22.2241 64.5768 23.4291 64.5768C23.6012 64.5768 24.6771 63.0706 26.6566 60.0583C30.4435 54.2058 35.8227 49.7733 42.7936 46.7613C43.4821 42.1137 45.2035 38.0255 47.9576 34.4973C48.6461 33.5506 49.3347 33.0772 50.0232 33.0772C50.7978 33.0772 51.1851 33.6366 51.1851 34.7555C51.1851 35.0137 50.4105 37.4666 48.8613 42.1142C48.2588 44.0937 47.9576 45.5569 47.9576 46.5036C47.9576 46.7618 48.0436 47.3212 48.2158 48.1819C48.2158 54.2926 45.6338 60.7049 40.4698 67.4179C37.0271 72.0655 35.1337 75.7664 34.7894 78.5209H77.3924C77.7367 74.5618 77.9088 71.6356 77.9088 69.7421C77.9088 52.0121 72.3575 37.8541 61.2548 27.2681C57.8982 24.1697 55.1871 22.6205 53.1215 22.6205H45.3755C44.6869 22.2762 43.9984 20.5549 43.3099 17.4565C42.7935 14.9606 42.148 13.4114 41.3734 12.8089C40.3406 15.9073 37.1561 18.3172 31.82 20.0385C28.9798 20.8992 27.0003 21.7598 25.8814 22.6205C24.9347 25.6328 22.1375 31.7436 17.4899 40.9525C12.9284 50.0755 10.5185 55.4975 10.2603 57.2195L10.2609 57.2181ZM82.5563 83.2975H28.4633C28.8076 77.3589 31.0453 71.6785 35.1765 66.2565C38.361 61.9532 40.2544 59.3281 40.8569 58.3814C42.0618 56.4879 42.7934 54.2072 43.0516 51.5391C37.4573 53.9489 33.1109 57.3916 30.0126 61.8671L28.2052 64.8364C26.9142 66.902 26.0966 68.0639 25.7523 68.3221C25.2359 68.7524 24.6765 68.9676 24.074 68.9676C21.406 68.9676 19.5985 68.0639 18.6518 66.2565C18.4796 65.9983 18.3936 65.6971 18.3936 65.3528C17.5329 65.7831 16.6723 65.9983 15.8116 65.9983C11.6804 65.9983 8.4099 63.4163 6 58.2523C6.68853 54.4654 10.3033 45.7293 16.844 32.0453C17.5325 30.7543 18.049 29.7215 18.3932 28.9469C20.9752 23.1804 22.2662 18.8339 22.2662 15.9079C22.2662 15.4776 22.008 13.0677 21.4916 8.6783H22.5244C27.172 8.6783 31.6044 10.1414 35.8214 13.0677C38.1452 9.0226 40.0817 7 41.6309 7C44.385 8.4631 46.2785 10.5287 47.3113 13.1968L48.7314 17.4571C49.592 17.285 50.3236 17.1989 50.9261 17.1989C57.8114 17.1989 64.6111 21.5883 71.3241 30.3669C79.1562 40.6089 83.0721 54.6379 83.0721 72.4539C83.0721 76.499 82.8999 80.1138 82.5557 83.2979" fill="black"/>
</g>
<defs>
<clipPath id="clip0">
<rect width="90" height="90" fill="white"/>
</clipPath>
</defs>
</svg>
